<svg width="74" height="23" fill="none" xmlns="http://www.w3.org/2000/svg"><path d="M.005 1.549c0-.336.13-.66.365-.9a1.28 1.28 0 01.887-.387H8.39c5.057 0 8.385 2.702 8.385 7.13v.06c0 4.846-4.033 7.359-8.802 7.359H2.538v6.8a1.278 1.278 0 01-.328.974 1.269 1.269 0 01-1.45.307 1.273 1.273 0 01-.426-.307 1.278 1.278 0 01-.329-.974V1.549zm8.067 10.968c3.706 0 6.14-1.994 6.14-4.986v-.06c0-3.21-2.394-4.876-5.961-4.876H2.588v9.882l5.484.04zM21.593 1.389a1.278 1.278 0 01.33-.974 1.272 1.272 0 01.425-.307 1.268 1.268 0 011.45.307 1.28 1.28 0 01.329.974v20.222a1.28 1.28 0 01-.329.974 1.27 1.27 0 01-1.45.307 1.271 1.271 0 01-.426-.307 1.278 1.278 0 01-.328-.974V1.389zm9.081.03a1.278 1.278 0 01.376-.876 1.27 1.27 0 01.876-.37h.348a1.535 1.535 0 011.281.737l13.6 17.4V1.36c0-.329.13-.643.362-.875a1.23 1.23 0 01.87-.362 1.23 1.23 0 011.232 1.236v20.292a1.14 1.14 0 01-.323.837 1.13 1.13 0 01-.829.34h-.129a1.695 1.695 0 01-.747-.234 1.703 1.703 0 01-.564-.544L33.117 4.24v17.41a1.258 1.258 0 01-.348.862 1.25 1.25 0 01-.843.385 1.23 1.23 0 01-.862-.372 1.238 1.238 0 01-.35-.874V1.419h-.04zm25.264-.03a1.278 1.278 0 01.329-.974 1.272 1.272 0 01.426-.307 1.268 1.268 0 011.45.307 1.28 1.28 0 01.329.974v12.295L71.228.55a1.468 1.468 0 01.994-.448 1.27 1.27 0 011.222 1.256 1.29 1.29 0 01-.12.49 1.285 1.285 0 01-.298.407l-7.948 7.898 8.574 10.53c.224.26.348.593.348.937a1.312 1.312 0 01-.111.5 1.306 1.306 0 01-.727.691 1.298 1.298 0 01-.503.085 1.228 1.228 0 01-.568-.166 1.233 1.233 0 01-.426-.412L63.3 11.859l-4.828 4.846v4.886a1.27 1.27 0 01-.37.895 1.259 1.259 0 01-1.375.275 1.261 1.261 0 01-.41-.275 1.268 1.268 0 01-.369-.895V1.389h-.01z" fill="#fff"/></svg>