<?xml version="1.0" encoding="UTF-8"?><!DOCTYPE svg PUBLIC "-//W3C//DTD SVG 1.1//EN" "http://www.w3.org/Graphics/SVG/1.1/DTD/svg11.dtd"><svg xmlns="http://www.w3.org/2000/svg" xmlns:xlink="http://www.w3.org/1999/xlink"><symbol id="android-logo"><path d="M34.886 14.062H8.114v19.133c-.011.913.332 1.795.96 2.468a3.697 3.697 0 002.422 1.159v7.453c.044.737.374 1.43.922 1.936a2.986 2.986 0 002.026.789c.753 0 1.478-.282 2.026-.789.548-.506.878-1.199.922-1.936v-7.433h8.236v7.433c.045.737.375 1.43.922 1.936a2.985 2.985 0 002.026.789c.754 0 1.478-.282 2.026-.789.548-.506.878-1.199.922-1.936v-7.453a3.707 3.707 0 002.426-1.158c.63-.673.975-1.555.967-2.468V14.402l-.03-.34zM2.953 15.745c.78 0 1.53.304 2.081.845.552.54.862 1.275.862 2.04v12.402c.001.38-.074.756-.22 1.107a2.88 2.88 0 01-.638.94 2.947 2.947 0 01-.956.627 2.995 2.995 0 01-3.217-.627A2.866 2.866 0 010 31.032V18.63c0-.38.076-.756.225-1.107.149-.35.366-.669.64-.937.275-.268.6-.48.959-.625a2.995 2.995 0 011.13-.216zM40.057 15.745c.78 0 1.53.304 2.081.845.552.54.862 1.275.862 2.04v12.402c.001.38-.074.756-.221 1.107-.147.351-.364.67-.637.94a2.947 2.947 0 01-.956.627 2.994 2.994 0 01-3.217-.627 2.867 2.867 0 01-.865-2.047V18.63c0-.38.076-.756.225-1.107.148-.35.366-.669.64-.937.275-.268.6-.48.959-.625a2.995 2.995 0 011.129-.216zM8.175 12.058h26.568a10.404 10.404 0 00-3.26-7.293L34.049.498a.307.307 0 00-.122-.461.322.322 0 00-.42.11l-2.42 4.157A16.708 16.708 0 0021.458.898a16.977 16.977 0 00-9.575 3.406L9.504.187a.325.325 0 00-.184-.16.333.333 0 00-.246.01.315.315 0 00-.112.42l2.493 4.238a10.443 10.443 0 00-3.28 7.363zm17.699-5.21c0-.398.161-.78.449-1.062.287-.281.677-.44 1.083-.44.407 0 .797.159 1.084.44.288.282.45.664.45 1.063 0 .398-.162.78-.45 1.062-.287.282-.677.44-1.084.44-.406 0-.796-.158-1.083-.44a1.488 1.488 0 01-.45-1.062zm-11.384 0c0-.398.162-.78.449-1.062.287-.281.677-.44 1.084-.44.406 0 .796.159 1.084.44.287.282.449.664.449 1.063 0 .398-.162.78-.45 1.062-.287.282-.677.44-1.083.44-.407 0-.797-.158-1.084-.44a1.488 1.488 0 01-.449-1.062z" fill="#A4C639"/></symbol><symbol id="apple-logo"><path d="M39.245 29.74a12.09 12.09 0 002.127 6.787A12.668 12.668 0 0047 41.063a29.794 29.794 0 01-4 7.96c-2.401 3.413-4.905 6.816-8.844 6.904-3.938.09-5.088-2.219-9.526-2.219-4.437 0-5.8 2.15-9.465 2.288-3.663.139-6.686-3.718-9.088-7.111-4.956-6.905-8.752-19.639-3.664-28.2a13.925 13.925 0 015.024-5.037 14.489 14.489 0 016.935-1.977c3.724-.069 7.246 2.427 9.526 2.427 2.28 0 6.564-3.009 11.062-2.565 2.084.073 4.121.613 5.954 1.576a13.387 13.387 0 014.61 3.977c-.275.168-6.31 3.571-6.249 10.653h-.03zM31.978 8.936C34.16 6.46 35.238 3.247 34.981 0c-3.305.302-6.364 1.82-8.55 4.241-1.862 2.092-3.5 5.445-3.053 8.66 3.247.247 6.555-1.597 8.57-3.945" fill="#fff"/></symbol><symbol id="arrow"><path opacity=".3" d="M2.041 20.503L21.748 1.415A.821.821 0 0022 .83a.801.801 0 00-.252-.585A.86.86 0 0021.14 0a.882.882 0 00-.608.245L.252 19.909a.832.832 0 00-.252.59.81.81 0 00.253.59l20.279 19.673a.894.894 0 00.613.238.877.877 0 00.473-.143.838.838 0 00.313-.372.809.809 0 00-.183-.902L2.041 20.503z" fill="#283645"/></symbol><symbol id="contacts-icon-mail" viewBox="0 0 18 13">
<path d="M14.9101 1.68071C16.1101 0.752143 15.8201 0 14.2601 0H3.73007C2.17007 0 1.88007 0.761428 3.07007 1.68071L6.82007 4.57786C7.44102 5.02891 8.2067 5.27397 8.99507 5.27397C9.78344 5.27397 10.5491 5.02891 11.1701 4.57786L14.9101 1.68071Z" fill="#D22856"/>
<path d="M11.9101 6.5L9.70007 8.24571C9.61906 8.29331 9.53164 8.33078 9.44007 8.35714L9.34007 8.40357C9.23142 8.44582 9.11701 8.47395 9.00007 8.48714L8.67007 8.43143L8.55007 8.35714C8.46475 8.3229 8.38417 8.27925 8.31007 8.22714L6.08007 6.5L2.18007 3.52857C1.00007 2.6 7.0672e-05 3.02714 7.0672e-05 4.47571V10.335C-0.002565 10.6825 0.0685454 11.0272 0.209341 11.3492C0.350138 11.6712 0.557862 11.9643 0.820654 12.2118C1.08345 12.4592 1.39616 12.6562 1.74093 12.7915C2.08571 12.9267 2.4558 12.9976 2.83007 13H15.1501C15.526 13 15.8983 12.9309 16.2454 12.7968C16.5924 12.6626 16.9075 12.466 17.1724 12.2183C17.4373 11.9706 17.6469 11.6767 17.7889 11.3534C17.9309 11.0302 18.0027 10.6841 18.0001 10.335V4.47571C18.0001 3.02714 17.0001 2.61857 15.8201 3.54714L11.9101 6.5Z" fill="#D22856"/>
</symbol><symbol id="contacts-icon-phone" viewBox="0 0 20 19">
<path d="M10.0408 0C6.46361 0 2.90684 0.608386 1.58197 1.8155C0.624506 2.9164 0.0701613 4.28212 0.00231714 5.70724C-0.000772379 5.76193 -0.000772379 5.81673 0.00231714 5.87141C0.00231714 6.08143 0.0903626 6.28284 0.247084 6.43135C0.403806 6.57985 0.616367 6.66328 0.838005 6.66328L4.07884 6.4122H4.16037C4.26878 6.41094 4.37587 6.38946 4.47551 6.34898C4.57516 6.3085 4.66541 6.24982 4.74112 6.17628C4.81683 6.10275 4.87651 6.0158 4.91676 5.92041C4.95701 5.82502 4.97703 5.72305 4.97568 5.62033V4.04625C4.97433 3.93131 4.99706 3.81725 5.04255 3.71069C5.08804 3.60412 5.15539 3.50717 5.2407 3.42544C5.326 3.34371 5.42757 3.27882 5.53952 3.23454C5.65148 3.19026 5.77159 3.16746 5.8929 3.16747H14.046C14.2919 3.16747 14.5278 3.26006 14.7017 3.42486C14.8757 3.58966 14.9734 3.81318 14.9734 4.04625V5.60102C14.9733 5.80773 15.0585 6.00627 15.2109 6.15423C15.3632 6.30219 15.5706 6.38784 15.7887 6.39288H15.8804L19.162 6.64396C19.2717 6.64396 19.3804 6.62348 19.4818 6.58369C19.5832 6.54389 19.6753 6.48556 19.7529 6.41203C19.8305 6.3385 19.8921 6.2512 19.9341 6.15513C19.9761 6.05906 19.9977 5.95609 19.9977 5.8521C20.0008 5.79741 20.0008 5.74261 19.9977 5.68793C19.9242 4.27608 19.378 2.92311 18.4384 1.82516C17.1951 0.608386 13.6179 0 10.0408 0ZM10.0408 10.3039C9.7102 10.3039 9.38705 10.3968 9.1122 10.5708C8.83734 10.7449 8.62312 10.9922 8.49662 11.2816C8.37011 11.571 8.33701 11.8894 8.4015 12.1966C8.46599 12.5039 8.62518 12.7861 8.85892 13.0075C9.09267 13.229 9.39048 13.3799 9.7147 13.441C10.0389 13.5021 10.375 13.4707 10.6804 13.3509C10.9858 13.231 11.2468 13.028 11.4305 12.7676C11.6141 12.5071 11.7121 12.2009 11.7121 11.8877C11.7135 11.6793 11.6712 11.4728 11.5877 11.2801C11.5042 11.0874 11.3811 10.9123 11.2256 10.7649C11.0702 10.6176 10.8854 10.501 10.682 10.4219C10.4786 10.3427 10.2606 10.3027 10.0408 10.3039ZM8.78723 6.75985V5.79416C8.78723 5.53804 8.67986 5.29241 8.48874 5.11131C8.29761 4.9302 8.03839 4.82846 7.7681 4.82846C7.49781 4.82846 7.23859 4.9302 7.04747 5.11131C6.85634 5.29241 6.74897 5.53804 6.74897 5.79416V6.75985L1.02145 12.4478C0.818967 12.6306 0.658375 12.8511 0.54967 13.0953C0.440965 13.3395 0.386473 13.6023 0.389587 13.8673V15.4511C0.389579 15.872 0.565344 16.2758 0.878498 16.5744C1.19165 16.8729 1.61675 17.0419 2.06096 17.0445H2.47881V18.0102C2.47881 18.1402 2.50583 18.2689 2.55832 18.389C2.61082 18.5091 2.68777 18.6182 2.78477 18.7101C2.88177 18.802 2.99692 18.8749 3.12366 18.9247C3.2504 18.9744 3.38624 19 3.52342 19C3.6606 19 3.79643 18.9744 3.92317 18.9247C4.04991 18.8749 4.16507 18.802 4.26207 18.7101C4.35907 18.6182 4.43601 18.5091 4.48851 18.389C4.54101 18.2689 4.56803 18.1402 4.56803 18.0102V17.0445H15.4727V18.0102C15.4727 18.2727 15.5828 18.5245 15.7787 18.7101C15.9746 18.8957 16.2403 19 16.5173 19C16.7944 19 17.0601 18.8957 17.256 18.7101C17.4519 18.5245 17.562 18.2727 17.562 18.0102V17.0445H17.9798C18.2001 17.0445 18.4183 17.0032 18.6218 16.923C18.8252 16.8428 19.0099 16.7253 19.1653 16.5772C19.3206 16.4291 19.4435 16.2534 19.5269 16.0601C19.6103 15.8669 19.6525 15.6599 19.6512 15.4511V13.8673C19.6556 13.603 19.6027 13.3406 19.4958 13.0964C19.3888 12.8523 19.2301 12.6315 19.0295 12.4478L13.3835 6.75985V5.79416C13.3835 5.53163 13.2735 5.27987 13.0776 5.09424C12.8817 4.90861 12.616 4.80432 12.3389 4.80432C12.0619 4.80432 11.7962 4.90861 11.6003 5.09424C11.4044 5.27987 11.2943 5.53163 11.2943 5.79416V6.75985H8.78723ZM10.0408 8.69123C10.7019 8.69123 11.3482 8.877 11.8979 9.22505C12.4476 9.57309 12.8761 10.0678 13.1291 10.6466C13.3821 11.2253 13.4483 11.8622 13.3193 12.4766C13.1903 13.0911 12.8719 13.6555 12.4044 14.0984C11.937 14.5414 11.3413 14.8431 10.6929 14.9653C10.0445 15.0875 9.37236 15.0248 8.76155 14.7851C8.15074 14.5453 7.62867 14.1393 7.26137 13.6185C6.89406 13.0976 6.69801 12.4852 6.69801 11.8587C6.69801 11.0186 7.05019 10.213 7.67708 9.61896C8.30397 9.02495 9.15421 8.69123 10.0408 8.69123Z" fill="#D22856"/>
</symbol><symbol id="contrast"><path d="M16 4a12 12 0 110 24 12 12 0 010-24zm0-4a16 16 0 100 32 16 16 0 000-32zM16 24.29a8.52 8.52 0 000-17" fill="#D22856"/></symbol><symbol id="crop"><path d="M32 28h4V12a4 4 0 00-4-4H16v4h16v16zm-20 4V0H8v8H0v4h8v20a4 4 0 004 4h20v8h4v-8h8v-4H12z" fill="#D22856"/></symbol><symbol id="facebook"><path d="M6.509 3.193H9V0H6.02C2.762.171 1.6 2.271 2.077 5.816H0v3.336h2.076V18h3.945V9.152h2.958V5.816H6.01c-.02-.998-.041-2.29.499-2.623z" fill="#D22856"/></symbol><symbol id="fill"><path d="M33.12 17.88L15.24 0l-2.83 2.83 4.76 4.76L6.88 17.88a3 3 0 000 4.24l11 11a3 3 0 004.24 0l11-11a3 3 0 000-4.24zM10.41 20L20 10.42 29.59 20H10.41zM38 23s-4 4.33-4 7a4 4 0 108 0c0-2.67-4-7-4-7zM48 40H0v3h48v-3z" fill="#D22856"/></symbol><symbol id="glasses-logo"><path fill-rule="evenodd" clip-rule="evenodd" d="M53.892 6.586l5.038 21.145a1.418 1.418 0 01-.22 1.297 1.356 1.356 0 01-1.183.535H53.52c-.69 5.812-5.57 10.315-11.489 10.315-5.917 0-10.798-4.503-11.488-10.314h-1.965C27.887 35.442 22.953 40 16.968 40c-5.994 0-10.934-4.573-11.612-10.466H1.45a1.364 1.364 0 01-1.154-.536 1.418 1.418 0 01-.24-1.267L5.106 6.586C5.455 4.26 7.639 0 13.486 0c.388 0 .76.157 1.034.435.274.279.428.657.428 1.05 0 .395-.154.772-.428 1.051a1.45 1.45 0 01-1.034.435c-4.707 0-5.438 3.694-5.497 4.1L3.341 26.602h2.034c.746-5.817 5.652-10.31 11.593-10.31 5.939 0 10.843 4.488 11.593 10.3l1.998.01c.745-5.75 5.598-10.189 11.473-10.189 5.886 0 10.746 4.456 11.477 10.222v-.053h2.137l-4.639-19.51c-.068-.407-.77-4.1-5.497-4.1a1.45 1.45 0 01-1.033-.436 1.498 1.498 0 01-.428-1.05c0-.394.154-.772.428-1.05A1.45 1.45 0 0145.51 0c5.848 0 8.03 4.259 8.382 6.586zm-28.22 22.977a9.122 9.122 0 00-.022-2.97c-.725-4.195-4.336-7.383-8.681-7.383-4.349 0-7.961 3.192-8.683 7.391a9.114 9.114 0 00-.025 2.94c.66 4.273 4.308 7.541 8.707 7.541 4.392 0 8.034-3.257 8.704-7.518zm24.942 0c.073-.461.112-.934.112-1.417 0-4.868-3.893-8.815-8.694-8.815-4.802 0-8.695 3.947-8.695 8.815 0 .482.039.956.112 1.418.669 4.194 4.257 7.397 8.583 7.397 4.325 0 7.913-3.203 8.582-7.397z" fill="#D22856"/></symbol><symbol id="heart"><path d="M6.469 12a.782.782 0 01-.58-.25C1.958 7.42 1.036 6.44.86 6.17A3.765 3.765 0 010 3.8a3.723 3.723 0 01.63-2.045A3.921 3.921 0 012.3.355 4.09 4.09 0 014.487.035 4.031 4.031 0 016.51.9 4.08 4.08 0 019.07 0a4.013 4.013 0 012.78 1.117A3.733 3.733 0 0113 3.8a3.409 3.409 0 01-.923 2.38l-5.038 5.56a.757.757 0 01-.57.25V12zM2.073 5.28c.218.26 2.56 2.84 4.396 4.86l4.478-4.94a1.96 1.96 0 00.539-1.4c0-.618-.254-1.21-.707-1.648A2.461 2.461 0 009.07 1.47c-.38.003-.756.09-1.097.252-.341.163-.64.398-.873.688a.844.844 0 01-.612.28.757.757 0 01-.332-.082.729.729 0 01-.258-.218 2.43 2.43 0 00-.868-.682 2.49 2.49 0 00-2.372.132 2.369 2.369 0 00-.882.968 2.267 2.267 0 00.296 2.462v.01z" fill="#D22856"/></symbol><symbol id="htmlacademy"><path d="M13.643.016L13.5 0 0 1.407v24.606L13.5 34 27 26.013V1.407L13.643.016zm11.591 25L13.5 31.956 1.766 25.015V14.93l11.685 6.916.02 1.253-8.017-4.743-.011 1.225 8.046 4.809.02 1.286-8.045-4.758-.01 1.226L13.5 26.95l8.124-4.833V16.91l3.62-2.15-.01 10.256zm0-11.564l-3.22 1.88-1.482.875-7.065-4.187-.011 1.225 6.04 3.573-.053.031-.13.076-.86.492-4.986-2.948-.011 1.225 3.936 2.328-.933.61-.021.012-2.971-1.742-.011 1.225 1.947 1.135-1.988 1.186-11.618-6.872 11.638-6.958 11.8 6.834zm0-1.225L13.44 5.31 1.766 12.22V2.99L13.5 1.764 25.234 2.99v9.237z" fill="#D22856"/></symbol><symbol id="microsoft-logo"><path d="M20.908 19.524H0V0h20.908v19.524z" fill="#F05423"/><path d="M44 19.524H23.092V0H44v19.524z" fill="#84C441"/><path d="M20.908 41H0V21.476h20.908V41z" fill="#2DABE2"/><path d="M44 41H23.092V21.476H44V41z" fill="#F9BC15"/></symbol><symbol id="no"><path d="M15.644 13.507l10.91-10.92a1.503 1.503 0 000-2.14 1.524 1.524 0 00-2.14 0l-10.909 10.92L2.586.447a1.504 1.504 0 00-2.14 0 1.524 1.524 0 000 2.14l10.92 10.92-10.92 10.91a1.503 1.503 0 000 2.139 1.514 1.514 0 002.14 0l10.919-10.91 10.909 10.91a1.514 1.514 0 002.14-2.14l-10.91-10.91z" fill="#F25B26"/></symbol><symbol id="pink-desktop-footer">
<path d="M98.94 9.746a3.678 3.678 0 01-2.574-1.047 3.554 3.554 0 01-1.072-2.528c0 .948-.383 1.858-1.065 2.528a3.668 3.668 0 01-2.57 1.047c.965.002 1.89.381 2.57 1.053a3.553 3.553 0 011.065 2.531c.003-.95.388-1.86 1.071-2.531a3.688 3.688 0 012.575-1.053zM43.287 19.067h.733a2.47 2.47 0 00-.906-.887 2.524 2.524 0 00-1.233-.328c-.418 0-.826-.129-1.166-.368a1.979 1.979 0 01-.732-.965 12.27 12.27 0 00-2.1.81h.191c.533 0 1.044.208 1.42.578.377.37.589.873.589 1.396.005.096.005.191 0 .287a8.975 8.975 0 013.204-.523z"/>
<path d="M60.733 27.647l-5.192-21.08C55.179 4.245 52.929 0 46.903 0c-.4 0-.783.156-1.066.434a1.469 1.469 0 00-.44 1.047c0 .393.158.77.44 1.047a1.52 1.52 0 001.066.434c4.871 0 5.594 3.683 5.665 4.088l4.78 19.452H55.25a11.721 11.721 0 00-1.724-4.78 11.946 11.946 0 00-3.599-3.633 2.502 2.502 0 00-1.116.908c-.274.404-.42.878-.42 1.363.005.086.005.171 0 .257a9.148 9.148 0 012.922 3.207 8.974 8.974 0 011.095 4.169 9.042 9.042 0 01-.14 1.48 8.849 8.849 0 01-3.05 5.393 9.132 9.132 0 01-5.885 2.141 9.132 9.132 0 01-5.885-2.141 8.849 8.849 0 01-3.049-5.392 9.031 9.031 0 01-.14-1.481c.015-1.37.341-2.72.954-3.95a2.023 2.023 0 01-1.33-.625 1.957 1.957 0 01-.538-1.35.694.694 0 00-.191-.483 11.566 11.566 0 00-1.798 4.936h-1.868a11.782 11.782 0 00-3.933-7.54 12.17 12.17 0 00-8.05-3.03 12.17 12.17 0 00-8.05 3.03 11.782 11.782 0 00-3.932 7.54H3.443L8.233 7.05c.061-.405.814-4.088 5.666-4.088.4 0 .783-.156 1.065-.434.282-.277.441-.654.441-1.047 0-.393-.159-.77-.441-1.047A1.52 1.52 0 0013.899 0C7.872 0 5.623 4.246 5.26 6.566L.058 27.647a1.38 1.38 0 00.247 1.263c.14.176.322.316.529.41.207.092.433.135.66.124h4.018c.082.611.21 1.215.382 1.807a.731.731 0 00.1-.355c0-.524.212-1.026.589-1.397.376-.37.887-.578 1.42-.578.162.004.324.024.482.06a8.536 8.536 0 01-.07-.988c.002-.497.046-.992.13-1.481a8.848 8.848 0 013.042-5.414 9.131 9.131 0 015.897-2.152c2.165 0 4.258.764 5.898 2.152a8.848 8.848 0 013.041 5.414c.085.49.128.984.131 1.48a8.775 8.775 0 01-1.334 4.7 8.984 8.984 0 01-3.656 3.298 9.174 9.174 0 01-9.503-.858c-.363.31-.826.48-1.306.483a.76.76 0 00-.526.22.734.734 0 00-.217.521 1.946 1.946 0 01-.181.8 12.088 12.088 0 007.643 2.705 12.174 12.174 0 008.012-2.951 11.789 11.789 0 004-7.436h1.829a11.784 11.784 0 003.944 7.51A12.171 12.171 0 0043.292 40c2.964 0 5.823-1.073 8.033-3.015a11.784 11.784 0 003.944-7.511h4.018c.232.016.465-.024.678-.117.212-.093.398-.236.541-.417a1.38 1.38 0 00.227-1.293z"/>
<path d="M72.193 18.425c0-.333.133-.652.369-.89.237-.238.558-.376.897-.384h7.211c5.113 0 8.477 2.676 8.477 7.06v.06c0 4.798-4.078 7.287-8.899 7.287h-5.494v6.734a1.243 1.243 0 01-.332.965 1.286 1.286 0 01-.948.41 1.304 1.304 0 01-.949-.41 1.26 1.26 0 01-.332-.965V18.425zm8.156 10.861c3.746 0 6.207-1.974 6.207-4.937v-.059c0-3.18-2.42-4.828-6.026-4.828h-5.725v9.785l5.544.04zM94.019 18.267a1.244 1.244 0 01.332-.965 1.287 1.287 0 01.948-.41 1.304 1.304 0 01.948.41 1.26 1.26 0 01.333.965v20.024a1.245 1.245 0 01-.332.966 1.285 1.285 0 01-.949.41 1.305 1.305 0 01-.948-.41 1.26 1.26 0 01-.332-.965V18.267zM103.199 18.296a1.25 1.25 0 01.38-.867c.236-.23.553-.362.885-.367h.352c.261.005.516.075.743.203.226.127.416.309.552.528l13.751 17.23V18.237c0-.325.131-.636.364-.866a1.259 1.259 0 011.762 0c.233.23.364.541.364.866v20.094a1.117 1.117 0 01-.711 1.082 1.16 1.16 0 01-.454.083h-.13a1.739 1.739 0 01-.756-.231 1.708 1.708 0 01-.57-.54L105.67 21.092v17.24a1.238 1.238 0 01-.353.853c-.224.23-.529.366-.853.38a1.257 1.257 0 01-.871-.368 1.21 1.21 0 01-.354-.865V18.296h-.04zM128.74 18.267a1.244 1.244 0 01.332-.965 1.288 1.288 0 01.949-.41 1.304 1.304 0 01.948.41 1.243 1.243 0 01.332.965v12.175l12.897-13.004c.264-.27.624-.428 1.004-.445.329.013.64.149.87.38.23.232.361.541.366.864a1.262 1.262 0 01-.422.89l-8.035 7.82 8.667 10.426c.227.258.352.588.352.928a1.287 1.287 0 01-.847 1.18c-.162.06-.335.09-.509.084a1.228 1.228 0 01-1.004-.572l-8.447-10.358-4.892 4.799v4.838a1.238 1.238 0 01-.373.886 1.282 1.282 0 01-.902.368 1.29 1.29 0 01-.902-.368 1.244 1.244 0 01-.374-.886V18.267h-.01z"/>
<path d="M50.92 15.917a4.577 4.577 0 01-1.729-.335 4.516 4.516 0 01-1.466-.96 4.43 4.43 0 01-.98-1.44 4.37 4.37 0 01-.344-1.699 4.406 4.406 0 01-1.328 3.136 4.56 4.56 0 01-3.192 1.298 4.57 4.57 0 013.193 1.304 4.416 4.416 0 011.327 3.14c0-1.18.476-2.31 1.323-3.143a4.56 4.56 0 013.196-1.301zM38.074 19.383a2.786 2.786 0 01-1.953-.796 2.692 2.692 0 01-.809-1.92c0 .719-.29 1.408-.805 1.917a2.786 2.786 0 01-1.947.799c.73 0 1.43.285 1.946.792.516.508.806 1.196.806 1.913a2.693 2.693 0 01.813-1.913 2.787 2.787 0 011.95-.792zM10.785 33.64a2.786 2.786 0 01-1.94-.802 2.692 2.692 0 01-.802-1.913c0 .719-.29 1.408-.805 1.917a2.786 2.786 0 01-1.947.799c.73.002 1.43.29 1.947.798.515.51.805 1.199.805 1.917 0-.717.288-1.404.802-1.913a2.786 2.786 0 011.94-.802z"/>
</symbol><symbol id="pink-desktop-nav">
<path d="M72.193 18.425c0-.333.133-.652.369-.89.237-.238.558-.376.897-.384h7.211c5.113 0 8.477 2.676 8.477 7.06v.06c0 4.798-4.078 7.286-8.899 7.286h-5.494v6.734a1.243 1.243 0 01-.332.965 1.286 1.286 0 01-.948.41 1.304 1.304 0 01-.949-.41 1.26 1.26 0 01-.332-.965V18.425zm8.156 10.861c3.746 0 6.207-1.975 6.207-4.937v-.059c0-3.18-2.42-4.828-6.026-4.828h-5.725v9.785l5.544.04zM94.019 18.267a1.243 1.243 0 01.332-.965 1.286 1.286 0 01.948-.41 1.304 1.304 0 01.948.41 1.258 1.258 0 01.333.965V38.29a1.245 1.245 0 01-.332.965 1.284 1.284 0 01-.949.41 1.305 1.305 0 01-.948-.41 1.26 1.26 0 01-.332-.965V18.267zM103.199 18.297a1.25 1.25 0 01.38-.868c.236-.23.553-.362.885-.367h.352c.261.005.516.075.743.203.226.127.416.31.552.528l13.751 17.23V18.237c0-.324.131-.636.364-.865a1.259 1.259 0 011.762 0c.233.23.364.54.364.865v20.094a1.117 1.117 0 01-.711 1.082 1.161 1.161 0 01-.454.083h-.13a1.739 1.739 0 01-.756-.23 1.709 1.709 0 01-.57-.54L105.67 21.09v17.24a1.238 1.238 0 01-.353.853c-.224.23-.529.366-.853.381a1.257 1.257 0 01-.871-.369 1.21 1.21 0 01-.354-.865V18.296h-.04zM128.74 18.267a1.243 1.243 0 01.332-.965 1.287 1.287 0 01.949-.41 1.304 1.304 0 01.948.41 1.242 1.242 0 01.332.965v12.175l12.897-13.005c.264-.269.624-.428 1.004-.444.329.013.64.149.87.38.23.232.361.54.366.864a1.262 1.262 0 01-.422.889l-8.035 7.82 8.667 10.427c.227.258.352.587.352.928a1.287 1.287 0 01-.847 1.18 1.261 1.261 0 01-1.083-.08 1.23 1.23 0 01-.43-.409l-8.457-10.357-4.882 4.798v4.839a1.238 1.238 0 01-.373.886 1.282 1.282 0 01-.902.368 1.288 1.288 0 01-.902-.368 1.244 1.244 0 01-.374-.886V18.267h-.01z" fill="#fff"/>
<path d="M98.94 9.746a3.678 3.678 0 01-2.574-1.047 3.554 3.554 0 01-1.072-2.528c0 .948-.383 1.857-1.065 2.528a3.668 3.668 0 01-2.57 1.047c.965.002 1.89.381 2.57 1.053a3.554 3.554 0 011.065 2.53c.003-.949.388-1.86 1.071-2.53a3.688 3.688 0 012.575-1.053z" fill="#D22856"/>
<path d="M43.287 19.067h.733a2.47 2.47 0 00-.906-.887 2.523 2.523 0 00-1.233-.328c-.418 0-.826-.129-1.166-.368a1.978 1.978 0 01-.732-.965c-.724.206-1.427.477-2.1.81h.191c.533 0 1.044.208 1.42.578.377.37.589.873.589 1.397.005.095.005.19 0 .286a8.977 8.977 0 013.204-.523z" fill="#fff"/>
<path d="M60.733 27.647l-5.192-21.08C55.179 4.245 52.929 0 46.903 0c-.4 0-.783.156-1.066.434a1.469 1.469 0 00-.44 1.047c0 .393.158.77.44 1.047a1.52 1.52 0 001.066.434c4.871 0 5.594 3.683 5.665 4.088l4.78 19.452H55.25a11.721 11.721 0 00-1.724-4.78 11.946 11.946 0 00-3.599-3.633 2.502 2.502 0 00-1.116.908c-.274.404-.42.878-.42 1.363.005.086.005.171 0 .257a9.148 9.148 0 012.922 3.207 8.974 8.974 0 011.095 4.169 9.042 9.042 0 01-.14 1.48 8.849 8.849 0 01-3.05 5.393 9.132 9.132 0 01-5.885 2.141 9.132 9.132 0 01-5.885-2.141 8.849 8.849 0 01-3.049-5.392 9.031 9.031 0 01-.14-1.481c.015-1.37.341-2.72.954-3.95a2.023 2.023 0 01-1.33-.625 1.957 1.957 0 01-.538-1.35.694.694 0 00-.191-.483 11.566 11.566 0 00-1.798 4.936h-1.868a11.782 11.782 0 00-3.933-7.54 12.17 12.17 0 00-8.05-3.03 12.17 12.17 0 00-8.05 3.03 11.782 11.782 0 00-3.932 7.54H3.443L8.233 7.05c.061-.405.814-4.088 5.666-4.088.4 0 .783-.156 1.065-.434.282-.277.441-.654.441-1.047 0-.393-.159-.77-.441-1.047A1.52 1.52 0 0013.899 0C7.872 0 5.623 4.246 5.26 6.566L.058 27.647a1.38 1.38 0 00.247 1.263c.14.176.322.316.529.41.207.092.433.135.66.124h4.018c.082.611.21 1.215.382 1.807a.731.731 0 00.1-.355c0-.524.212-1.026.589-1.397.376-.37.887-.578 1.42-.578.163.002.325.025.482.069a8.835 8.835 0 01-.07-1.037c.002-.496.046-.991.13-1.48a8.848 8.848 0 013.042-5.414 9.131 9.131 0 015.897-2.152c2.165 0 4.258.763 5.898 2.152a8.848 8.848 0 013.041 5.413c.085.49.128.985.131 1.481a8.87 8.87 0 01-2.665 6.267 9.18 9.18 0 01-6.374 2.62 9.146 9.146 0 01-5.454-1.708c-.363.31-.826.48-1.306.483a.76.76 0 00-.526.22.734.734 0 00-.217.521 1.946 1.946 0 01-.181.8 12.088 12.088 0 007.643 2.705 12.174 12.174 0 008.012-2.951 11.789 11.789 0 004-7.436h1.829a11.784 11.784 0 003.944 7.51A12.171 12.171 0 0043.292 40c2.964 0 5.823-1.073 8.033-3.015a11.784 11.784 0 003.944-7.511h4.018c.232.016.465-.024.678-.117.212-.093.398-.236.541-.417a1.38 1.38 0 00.227-1.293z" fill="#fff"/>
<path d="M50.92 15.917a4.576 4.576 0 01-1.729-.335 4.515 4.515 0 01-1.466-.96 4.431 4.431 0 01-.98-1.44 4.37 4.37 0 01-.344-1.699 4.406 4.406 0 01-1.328 3.136 4.56 4.56 0 01-3.192 1.298 4.57 4.57 0 013.193 1.304 4.416 4.416 0 011.327 3.14c0-1.18.476-2.31 1.323-3.143a4.56 4.56 0 013.196-1.301zM38.074 19.383a2.786 2.786 0 01-1.953-.796 2.692 2.692 0 01-.809-1.92c0 .719-.29 1.408-.805 1.917a2.786 2.786 0 01-1.947.799c.73 0 1.43.285 1.946.792.516.507.806 1.196.806 1.913a2.693 2.693 0 01.813-1.914 2.787 2.787 0 011.95-.791zM10.785 33.64a2.786 2.786 0 01-1.94-.802 2.692 2.692 0 01-.802-1.913c0 .719-.29 1.408-.805 1.917a2.786 2.786 0 01-1.947.799c.73.002 1.43.29 1.947.799.516.508.805 1.198.805 1.916 0-.717.288-1.404.802-1.913a2.786 2.786 0 011.94-.802z" fill="#D22856"/>
</symbol><symbol id="pink-logo"><path d="M.005 1.549c0-.336.13-.66.365-.9C.604.41.922.27 1.257.262H8.39c5.057 0 8.385 2.703 8.385 7.13v.06c0 4.846-4.033 7.358-8.802 7.358H2.538v6.801a1.28 1.28 0 01-.754 1.28 1.269 1.269 0 01-1.717-.758 1.28 1.28 0 01-.062-.522V1.549zm8.067 10.968c3.706 0 6.14-1.994 6.14-4.986v-.06c0-3.21-2.394-4.875-5.961-4.875H2.588v9.881l5.484.04zM21.593 1.389a1.282 1.282 0 01.755-1.28 1.268 1.268 0 011.717.758c.056.168.077.346.062.522v20.222a1.28 1.28 0 01-.754 1.28 1.27 1.27 0 01-1.717-.758 1.282 1.282 0 01-.063-.522V1.389zM30.674 1.419A1.278 1.278 0 0131.926.173h.348a1.535 1.535 0 011.281.737l13.6 17.4V1.36A1.239 1.239 0 0148.389.122c.327 0 .64.13.871.362.231.232.36.546.36.874v20.292a1.14 1.14 0 01-.703 1.092 1.13 1.13 0 01-.449.085h-.129a1.695 1.695 0 01-1.311-.778L33.117 4.24v17.41a1.258 1.258 0 01-1.191 1.247 1.238 1.238 0 01-1.212-1.247V1.42h-.04zM55.938 1.389a1.282 1.282 0 01.755-1.28 1.268 1.268 0 011.717.758c.056.168.077.346.062.522v12.295L71.228.55c.262-.271.618-.432.994-.448a1.27 1.27 0 011.222 1.256 1.29 1.29 0 01-.418.898l-7.947 7.897 8.573 10.53c.224.26.348.593.348.937a1.312 1.312 0 01-.838 1.191 1.228 1.228 0 01-1.497-.493L63.3 11.859l-4.828 4.846v4.886a1.27 1.27 0 01-.78 1.17 1.259 1.259 0 01-1.648-.685 1.27 1.27 0 01-.096-.485V1.389h-.01z" fill="#283645"/></symbol><symbol id="pink-tablet"><path fill-rule="evenodd" clip-rule="evenodd" d="M53.892 6.586l5.038 21.145a1.418 1.418 0 01-.22 1.297 1.356 1.356 0 01-1.183.535H53.52c-.69 5.812-5.57 10.315-11.489 10.315-5.917 0-10.798-4.503-11.488-10.314h-1.965C27.887 35.442 22.953 40 16.968 40c-5.994 0-10.934-4.573-11.612-10.466H1.45a1.364 1.364 0 01-1.154-.536 1.418 1.418 0 01-.24-1.267L5.106 6.586C5.455 4.26 7.639 0 13.486 0c.388 0 .76.157 1.034.435.274.279.428.657.428 1.05 0 .395-.154.772-.428 1.051a1.45 1.45 0 01-1.034.435c-4.707 0-5.438 3.694-5.497 4.1L3.341 26.602h2.034c.746-5.817 5.652-10.31 11.593-10.31 5.939 0 10.843 4.488 11.593 10.3l1.998.01c.745-5.75 5.598-10.189 11.473-10.189 5.886 0 10.746 4.456 11.477 10.222v-.053h2.137l-4.639-19.51c-.068-.407-.77-4.1-5.497-4.1a1.45 1.45 0 01-1.033-.436 1.498 1.498 0 01-.428-1.05c0-.394.154-.772.428-1.05A1.45 1.45 0 0145.51 0c5.848 0 8.03 4.259 8.382 6.586zm-28.22 22.977a9.122 9.122 0 00-.022-2.97c-.725-4.195-4.336-7.383-8.681-7.383-4.349 0-7.961 3.192-8.683 7.391a9.114 9.114 0 00-.025 2.94c.66 4.273 4.308 7.541 8.707 7.541 4.392 0 8.034-3.257 8.704-7.518zm24.942 0c.073-.461.112-.934.112-1.417 0-4.868-3.893-8.815-8.694-8.815-4.802 0-8.695 3.947-8.695 8.815 0 .482.039.956.112 1.418.669 4.194 4.257 7.397 8.583 7.397 4.325 0 7.913-3.203 8.582-7.397z" fill="#fff"/><path d="M71.005 18.549c0-.337.13-.66.365-.9.234-.24.552-.379.887-.387h7.133c5.057 0 8.385 2.703 8.385 7.13v.06c0 4.846-4.034 7.358-8.802 7.358h-5.435v6.801a1.282 1.282 0 01-.754 1.28 1.27 1.27 0 01-1.717-.758 1.282 1.282 0 01-.062-.522V18.549zm8.067 10.968c3.706 0 6.14-1.994 6.14-4.986v-.06c0-3.21-2.395-4.875-5.961-4.875h-5.663v9.881l5.484.04zM92.594 18.389a1.282 1.282 0 01.754-1.28 1.269 1.269 0 011.717.758c.056.168.077.346.062.522v20.222a1.282 1.282 0 01-.754 1.28 1.27 1.27 0 01-1.717-.758 1.282 1.282 0 01-.063-.522V18.389zM101.674 18.419a1.278 1.278 0 011.252-1.247h.347a1.535 1.535 0 011.282.738l13.601 17.4V18.36c0-.329.13-.643.361-.875a1.229 1.229 0 011.742 0c.231.232.361.546.361.874v20.292c.005.154-.021.308-.076.452a1.13 1.13 0 01-1.077.725h-.129a1.69 1.69 0 01-1.311-.778l-13.909-17.81v17.41a1.257 1.257 0 01-1.192 1.247 1.23 1.23 0 01-1.212-1.246V18.419h-.04zM126.938 18.389a1.284 1.284 0 01.755-1.28 1.267 1.267 0 011.45.306 1.287 1.287 0 01.329.974v12.295l12.756-13.133c.262-.271.617-.432.994-.448.325.012.633.15.86.383.227.234.357.546.362.873a1.28 1.28 0 01-.418.897l-7.948 7.898 8.574 10.53c.224.26.348.593.348.937a1.309 1.309 0 01-1.341 1.276 1.228 1.228 0 01-.994-.578l-8.365-10.46-4.828 4.846v4.886a1.278 1.278 0 01-.37.895 1.26 1.26 0 01-2.154-.895V18.389h-.01z" fill="#fff"/></symbol><symbol id="pink"><path d="M.005 1.5486C.0049 1.2126.1358.8898.3697.6494a1.2794 1.2794 0 01.887-.3871H8.39c5.0569 0 8.3851 2.7022 8.3851 7.1295v.0598c0 4.8461-4.0336 7.3589-8.8024 7.3589H2.5384v6.8005a1.2783 1.2783 0 01-.3286.9744 1.269 1.269 0 01-1.4506.3064 1.2729 1.2729 0 01-.4256-.3064 1.2783 1.2783 0 01-.3286-.9744V1.5486zM8.072 12.517c3.7058 0 6.1399-1.9943 6.1399-4.9857v-.0598c0-3.2108-2.3944-4.876-5.961-4.876H2.588v9.8816l5.484.0399zM21.5935 1.389a1.2784 1.2784 0 01.3286-.9744 1.2715 1.2715 0 01.4256-.3064 1.2676 1.2676 0 011.4505.3064 1.28 1.28 0 01.3287.9744v20.222a1.28 1.28 0 01-.3287.9744 1.2692 1.2692 0 01-1.4505.3064 1.2712 1.2712 0 01-.4256-.3064 1.2784 1.2784 0 01-.3286-.9744V1.389zM30.674 1.419a1.2782 1.2782 0 01.3757-.8764 1.2692 1.2692 0 01.8761-.37h.3477c.2581.0052.5108.0756.7347.2045.224.129.412.3123.5469.5333l13.6008 17.4V1.3591c0-.3279.1298-.6424.3609-.8743a1.2295 1.2295 0 01.8711-.3621c.3267 0 .64.1302.8711.3621.231.2319.3608.5464.3608.8743v20.2917a1.14 1.14 0 01-.3242.837 1.1292 1.1292 0 01-.8283.3397h-.1291a1.695 1.695 0 01-.7474-.2331 1.7026 1.7026 0 01-.564-.5447L33.1179 4.2409v17.4099a1.2584 1.2584 0 01-.3487.8616 1.25 1.25 0 01-.8434.3849 1.2298 1.2298 0 01-.8618-.3727 1.2385 1.2385 0 01-.3503-.8738V1.4189h-.0397zM55.9384 1.389a1.2784 1.2784 0 01.3286-.9744 1.2725 1.2725 0 01.4256-.3064 1.2676 1.2676 0 011.4505.3064 1.28 1.28 0 01.3287.9744v12.2947L71.2282.5514a1.468 1.468 0 01.9934-.4487c.3252.0128.6332.1501.8605.3838.2273.2337.3567.546.3615.8726a1.29 1.29 0 01-.1191.4907 1.2854 1.2854 0 01-.2981.4067l-7.9479 7.8974 8.5738 10.5297c.2241.2605.3475.5932.3477.9373a1.3122 1.3122 0 01-.1113.5001 1.3055 1.3055 0 01-.7265.6913 1.2975 1.2975 0 01-.5034.085 1.2285 1.2285 0 01-.568-.1659 1.2334 1.2334 0 01-.4255-.4125L63.3001 11.859l-4.8283 4.8461v4.8859a1.2704 1.2704 0 01-.3696.8955 1.2588 1.2588 0 01-1.375.2745 1.2612 1.2612 0 01-.4093-.2745 1.2675 1.2675 0 01-.3696-.8955V1.389h-.0099z" fill="#ffffff"/></symbol><symbol id="quotes"><path d="M35.147 6.973L30.839 0C28.389 1.481 0 12.059 0 39.13 0 46.27.341 63 18.98 63c11.236 0 13.998-10.153 13.998-13.422 0-21.727-21.47-13.994-21.47-13.994 0-17.807 19.883-26.518 23.639-28.611zM79 6.973L74.732 0c-2.43 1.481-30.849 12.059-30.849 39.13 0 7.14.342 23.87 18.99 23.87C74.1 63 76.86 52.847 76.86 49.578c0-21.727-21.47-13.994-21.47-13.994C55.391 17.777 75.315 9.066 79 6.973z" fill="#EFEFEF"/></symbol><symbol id="tick" viewBox="0 0 22 16">
<path d="M21.7001 0.284331C21.5105 0.102082 21.2557 0 20.9903 0C20.7249 0 20.47 0.102082 20.2805 0.284331L6.70324 13.6028L1.73472 8.72901C1.64045 8.63578 1.52831 8.56178 1.40474 8.51128C1.28118 8.46079 1.14865 8.43479 1.01479 8.43479C0.88093 8.43479 0.748397 8.46079 0.624833 8.51128C0.50127 8.56178 0.389122 8.63578 0.294859 8.72901C0.106004 8.91537 0 9.16747 0 9.43024C0 9.69302 0.106004 9.94512 0.294859 10.1315L5.98331 15.7115C6.07806 15.8037 6.19042 15.8767 6.31396 15.9262C6.4375 15.9756 6.56979 16.0007 6.70324 16C6.96925 15.9989 7.22416 15.8953 7.41303 15.7115L21.7001 1.69675C21.7951 1.60428 21.8705 1.49427 21.922 1.37306C21.9735 1.25186 22 1.12185 22 0.990541C22 0.859234 21.9735 0.729226 21.922 0.608017C21.8705 0.486809 21.7951 0.376798 21.7001 0.284331Z" fill="#D22856"/>
</symbol><symbol id="timer"><path d="M211.314 81.628l4.273-4.287c6.165-6.175 7.291-15.148 2.499-19.94-4.792-4.79-13.752-3.678-19.91 2.496l-4.305 4.311a118.265 118.265 0 00-59.684-25.578v-7.67h6.118c8.714 0 15.846-6.966 15.846-15.476 0-8.51-7.132-15.484-15.846-15.484H97.721c-8.714 0-15.846 6.966-15.846 15.484S89.008 30.96 97.722 30.96h6.118v7.67a118.935 118.935 0 00-69.052 34A119.238 119.238 0 00.946 141.836a119.313 119.313 0 0015.518 75.474 119.047 119.047 0 0058.389 50.187 118.839 118.839 0 0076.847 3.916 118.988 118.988 0 0063.175-43.991 119.28 119.28 0 0023.089-73.506 119.27 119.27 0 00-26.65-72.287zm-92.301 163.319a87.901 87.901 0 01-48.884-14.85 88.092 88.092 0 01-32.407-39.546 88.23 88.23 0 01-5.006-50.911A88.153 88.153 0 0156.8 94.524a87.95 87.95 0 0145.053-24.113 87.87 87.87 0 0150.838 5.017 88.012 88.012 0 0139.486 32.457 88.197 88.197 0 0114.825 48.956 88.177 88.177 0 01-25.774 62.301 87.923 87.923 0 01-62.214 25.805z" fill="#DEDEDE"/><circle cx="119" cy="157" r="93" stroke="#D22856" stroke-width="16"/></symbol><symbol id="twitter"><path d="M11.564.169A3.675 3.675 0 0113.672.14c.688.196 1.291.59 1.723 1.122.71-.21 1.41-.447 2.131-.656a2.03 2.03 0 01-.253.917c-.157.284-.38.533-.653.729.253.026.508-.002.747-.081.24-.08.456-.208.633-.376-.099.414-.3.801-.588 1.131-.287.33-.653.594-1.07.772-.247 6.27-3.367 10.467-10.689 10.296H5.15c-.443 0-4.418-.428-5.149-1.75 1.752.245 3.539-.147 4.984-1.095-1.03-.286-2.852-.447-3.161-2.74.388.133.81.163 1.215.085C1.76 7.705.34 7.039.422 4.993c.398.306.905.462 1.421.438C1.102 5.203-.247 2.31.896.825c1.926 1.723 3.964 3.35 7.59 3.512C8.711 2.205 9.69.777 11.563.169z" fill="#D22856"/></symbol><symbol id="yes"><path d="M30.556.43a1.54 1.54 0 00-.499-.318 1.607 1.607 0 00-1.179 0 1.54 1.54 0 00-.499.318L10.374 17.496 2.578 10.11a1.582 1.582 0 00-1.072-.39 1.576 1.576 0 00-1.057.425c-.28.266-.442.625-.449 1.001-.007.377.14.74.411 1.016l8.88 8.412c.142.135.31.243.497.316a1.596 1.596 0 001.67-.316L30.556 2.482c.284-.274.444-.642.444-1.026S30.84.703 30.556.43z" fill="#3DC644"/></symbol><symbol id="youtube"><path d="M1.834 12.809a1.257 1.257 0 01-1.285.03 1.097 1.097 0 01-.443-.457.97.97 0 01-.092-.603V1.221A.97.97 0 01.106.618C.2.429.355.27.549.16a1.256 1.256 0 011.285.031l12.4 5.502c1.022.445 1.022 1.169 0 1.614l-12.4 5.502z" fill="#D22856"/></symbol></svg>